<mxfile host="app.diagrams.net" modified="2021-02-02T10:09:56.875Z" agent="5.0 (Windows NT 6.3; Win64; x64) AppleWebKit/537.36 (KHTML, like Gecko) Chrome/86.0.4240.183 Safari/537.36" etag="OStWCm_UBNVomg5YuPzh" version="14.2.9" type="github">
  <diagram name="Page-1" id="3e8102d1-ef87-2e61-34e1-82d9a586fe2e">
    <mxGraphModel dx="2062" dy="762" grid="1" gridSize="10" guides="1" tooltips="1" connect="1" arrows="1" fold="1" page="1" pageScale="1" pageWidth="1100" pageHeight="850" background="#ffffff" math="0" shadow="0">
      <root>
        <mxCell id="0" />
        <mxCell id="1" parent="0" />
        <mxCell id="70666756c84bb93c-1" value="" style="ellipse;whiteSpace=wrap;html=1;rounded=0;shadow=0;comic=0;strokeWidth=1;fontFamily=Verdana;fontSize=18;strokeColor=none;fillColor=#3333FF;fontColor=#3333FF;" parent="1" vertex="1">
          <mxGeometry x="280" y="110" width="500" height="500" as="geometry" />
        </mxCell>
        <mxCell id="70666756c84bb93c-2" value="&lt;font style=&quot;font-size: 19px&quot;&gt;&lt;font style=&quot;font-size: 32px&quot;&gt;TetraVX&lt;/font&gt;&lt;br&gt;&lt;span style=&quot;line-height: 100% ; font-weight: normal&quot;&gt;Cisco Business&amp;nbsp;Model&lt;/span&gt;&lt;/font&gt;" style="ellipse;whiteSpace=wrap;html=1;rounded=0;shadow=0;comic=0;strokeWidth=1;fontFamily=Verdana;fontSize=28;strokeColor=none;fillColor=#ffffff;fontStyle=1;fontColor=#3333FF;align=center;" parent="1" vertex="1">
          <mxGeometry x="400" y="230" width="260" height="260" as="geometry" />
        </mxCell>
        <mxCell id="_L61WSiDl87QU1zJZqWd-4" value="Metrics, Analytics,&lt;br style=&quot;font-size: 14px;&quot;&gt;and Forecasting" style="aspect=fixed;html=1;points=[];align=center;image;fontSize=14;image=img/lib/azure2/management_governance/Metrics.svg;fontColor=#FFFFFF;labelBackgroundColor=none;fontStyle=1" vertex="1" parent="1">
          <mxGeometry x="504" y="510" width="46.15" height="50" as="geometry" />
        </mxCell>
        <mxCell id="_L61WSiDl87QU1zJZqWd-6" value="API Management&lt;br&gt;Automation" style="aspect=fixed;html=1;points=[];align=center;image;fontSize=14;image=img/lib/azure2/management_governance/Automation_Accounts.svg;fontStyle=1;labelBackgroundColor=none;fontColor=#FFFFFF;" vertex="1" parent="1">
          <mxGeometry x="500" y="120" width="60" height="60" as="geometry" />
        </mxCell>
        <mxCell id="_L61WSiDl87QU1zJZqWd-7" value="" style="aspect=fixed;html=1;points=[];align=center;image;fontSize=12;image=img/lib/azure2/management_governance/Alerts.svg;" vertex="1" parent="1">
          <mxGeometry x="30" y="210" width="67" height="56.00000000000001" as="geometry" />
        </mxCell>
        <mxCell id="_L61WSiDl87QU1zJZqWd-10" value="Monitoring" style="aspect=fixed;html=1;points=[];align=center;image;fontSize=14;image=img/lib/azure2/management_governance/Monitor.svg;labelBackgroundColor=none;fontColor=#FFFFFF;fontStyle=1" vertex="1" parent="1">
          <mxGeometry x="676" y="258" width="54" height="54" as="geometry" />
        </mxCell>
        <mxCell id="_L61WSiDl87QU1zJZqWd-11" value="" style="aspect=fixed;html=1;points=[];align=center;image;fontSize=12;image=img/lib/azure2/management_governance/Activity_Log.svg;" vertex="1" parent="1">
          <mxGeometry x="80" y="365" width="56.00000000000001" height="67" as="geometry" />
        </mxCell>
        <mxCell id="_L61WSiDl87QU1zJZqWd-14" value="&lt;font size=&quot;1&quot;&gt;&lt;b style=&quot;font-size: 14px&quot;&gt;Security&lt;/b&gt;&lt;/font&gt;" style="aspect=fixed;html=1;points=[];align=center;image;fontSize=12;image=img/lib/azure2/networking/Network_Security_Groups.svg;labelBackgroundColor=none;fontColor=#FFFFFF;" vertex="1" parent="1">
          <mxGeometry x="620" y="164.65" width="50" height="60.71" as="geometry" />
        </mxCell>
        <mxCell id="_L61WSiDl87QU1zJZqWd-18" value="Compliance" style="aspect=fixed;perimeter=ellipsePerimeter;html=1;align=center;shadow=0;dashed=0;labelBackgroundColor=#FFFFFF;fontSize=14;spacingTop=3;image;image=img/lib/ibm/miscellaneous/bluemix.svg;fontColor=#FFFFFF;fontStyle=1" vertex="1" parent="1">
          <mxGeometry x="322" y="258" width="60" height="60" as="geometry" />
        </mxCell>
        <mxCell id="_L61WSiDl87QU1zJZqWd-51" value="" style="aspect=fixed;html=1;points=[];align=center;image;fontSize=12;image=img/lib/azure2/management_governance/Education.svg;rotation=45;" vertex="1" parent="1">
          <mxGeometry x="585" y="317" width="38" height="29.49" as="geometry" />
        </mxCell>
        <mxCell id="_L61WSiDl87QU1zJZqWd-55" value="" style="aspect=fixed;html=1;points=[];align=center;image;fontSize=12;image=img/lib/azure2/preview/Web_Environment.svg;" vertex="1" parent="1">
          <mxGeometry x="136" y="220" width="64" height="66" as="geometry" />
        </mxCell>
        <mxCell id="_L61WSiDl87QU1zJZqWd-52" value="Central &lt;br style=&quot;font-size: 14px;&quot;&gt;&lt;span style=&quot;font-size: 14px;&quot;&gt;Management&lt;br style=&quot;font-size: 14px;&quot;&gt;&lt;/span&gt;&amp;nbsp;Service" style="aspect=fixed;html=1;points=[];align=center;image;fontSize=14;image=img/lib/azure2/ai_machine_learning/Cognitive_Services.svg;labelBackgroundColor=none;fontStyle=1;fontColor=#E6E6E6;" vertex="1" parent="1">
          <mxGeometry x="623" y="455" width="58" height="40.94" as="geometry" />
        </mxCell>
        <mxCell id="_L61WSiDl87QU1zJZqWd-64" value="Customer&lt;br style=&quot;font-size: 14px;&quot;&gt;Support" style="aspect=fixed;html=1;points=[];align=center;image;fontSize=14;image=img/lib/azure2/general/Help_and_Support.svg;labelBackgroundColor=none;strokeColor=#0000CC;fillColor=#3333FF;gradientColor=none;fontColor=#E6E6E6;fontStyle=1" vertex="1" parent="1">
          <mxGeometry x="690" y="349" width="46" height="56.68" as="geometry" />
        </mxCell>
        <mxCell id="_L61WSiDl87QU1zJZqWd-71" value="Process" style="aspect=fixed;html=1;points=[];align=center;image;fontSize=14;image=img/lib/azure2/general/Workflow.svg;labelBackgroundColor=none;strokeColor=#0000CC;fillColor=#3333FF;gradientColor=none;fontColor=#FFFFFF;fontStyle=1" vertex="1" parent="1">
          <mxGeometry x="386.5" y="160" width="68" height="70" as="geometry" />
        </mxCell>
        <mxCell id="_L61WSiDl87QU1zJZqWd-72" value="Maintenance&lt;br style=&quot;font-size: 14px;&quot;&gt;and Recovery" style="aspect=fixed;html=1;points=[];align=center;image;fontSize=14;image=img/lib/azure2/migrate/Recovery_Services_Vaults.svg;labelBackgroundColor=none;strokeColor=#0000CC;fillColor=#3333FF;gradientColor=none;fontColor=#FFFFFF;fontStyle=1" vertex="1" parent="1">
          <mxGeometry x="322" y="365" width="69" height="60" as="geometry" />
        </mxCell>
      </root>
    </mxGraphModel>
  </diagram>
</mxfile>
